<!-- Generated by IcoMoon.io -->
<svg version="1.1" xmlns="http://www.w3.org/2000/svg" width="768" height="768" viewBox="0 0 768 768">
<title></title>
<g id="icomoon-ignore">
</g>
<path d="M640 438.4c-19.2 0-32 12.8-32 32v169.6c0 19.2-12.8 32-32 32h-448c-19.2 0-32-12.8-32-32v-448c0-19.2 12.8-32 32-32h169.6c19.2 0 32-12.8 32-32s-12.8-32-32-32h-169.6c-54.4 0-96 41.6-96 96v448c0 54.4 41.6 96 96 96h448c54.4 0 96-41.6 96-96v-169.6c0-19.2-12.8-32-32-32z"></path>
<path d="M726.4 169.6l-128-128c-12.8-12.8-32-12.8-44.8 0l-320 320c-6.4 6.4-9.6 12.8-9.6 22.4v128c0 19.2 12.8 32 32 32h128c9.6 0 16-3.2 22.4-9.6l320-320c12.8-12.8 12.8-32 0-44.8zM371.2 480h-83.2v-83.2l288-288 83.2 83.2-288 288z"></path>
</svg>
