<!-- Generated by IcoMoon.io -->
<svg version="1.1" xmlns="http://www.w3.org/2000/svg" width="768" height="768" viewBox="0 0 768 768">
<title></title>
<g id="icomoon-ignore">
</g>
<path d="M384 256c-70.4 0-128 57.6-128 128s57.6 128 128 128c70.4 0 128-57.6 128-128s-57.6-128-128-128zM384 448c-35.2 0-64-28.8-64-64s28.8-64 64-64c35.2 0 64 28.8 64 64s-28.8 64-64 64z"></path>
<path d="M649.6 492.8c3.2-6.4 9.6-12.8 22.4-12.8 54.4 0 96-41.6 96-96s-41.6-96-96-96h-6.4c-6.4 0-12.8-3.2-16-9.6 0-3.2 0-3.2-3.2-6.4-3.2-6.4-3.2-16 6.4-25.6 38.4-38.4 38.4-99.2 0-134.4v0c0 0 0 0 0 0-19.2-19.2-41.6-28.8-67.2-28.8 0 0 0 0 0 0-25.6 0-51.2 9.6-70.4 28.8-6.4 6.4-16 6.4-22.4 3.2-6.4 0-12.8-9.6-12.8-19.2 0-54.4-41.6-96-96-96s-96 41.6-96 96v6.4c0 6.4-3.2 12.8-9.6 16-3.2 0-3.2 0-6.4 3.2-6.4 3.2-16 0-25.6-6.4-38.4-38.4-99.2-38.4-134.4 0-38.4 38.4-38.4 99.2 3.2 137.6 6.4 6.4 6.4 16 3.2 25.6-3.2 6.4-12.8 12.8-22.4 12.8-54.4 0-96 41.6-96 96s41.6 96 96 96h6.4c9.6 0 16 6.4 19.2 12.8s3.2 16-6.4 25.6c-19.2 19.2-28.8 41.6-28.8 67.2s9.6 48 28.8 67.2c0 0 0 0 0 0 38.4 38.4 99.2 38.4 137.6-3.2 6.4-6.4 16-6.4 25.6-3.2s12.8 9.6 12.8 22.4c0 54.4 41.6 96 96 96s96-41.6 96-96v-6.4c0-9.6 6.4-16 12.8-19.2s16-3.2 25.6 6.4c38.4 38.4 99.2 38.4 134.4 0 38.4-38.4 38.4-99.2-3.2-137.6-3.2-6.4-6.4-16-3.2-22.4 0 0 0 0 0 0zM592 467.2c-12.8 32-6.4 67.2 19.2 96 6.4 6.4 9.6 12.8 9.6 22.4s-3.2 16-9.6 22.4c-6.4 6.4-12.8 9.6-22.4 9.6 0 0 0 0 0 0-9.6 0-16-3.2-25.6-12.8-25.6-25.6-60.8-32-92.8-16-32 12.8-51.2 44.8-51.2 76.8v6.4c0 19.2-12.8 32-32 32s-32-12.8-32-32c0 0 0-3.2 0-3.2 0-35.2-22.4-64-54.4-76.8-9.6-6.4-22.4-6.4-35.2-6.4-22.4 0-44.8 9.6-60.8 25.6-12.8 12.8-32 12.8-44.8 0 0 0 0 0 0 0v0c-6.4-6.4-9.6-12.8-9.6-22.4s3.2-16 12.8-25.6c25.6-25.6 32-60.8 16-92.8-12.8-32-44.8-51.2-76.8-51.2h-6.4c-19.2 0-32-12.8-32-32s12.8-32 32-32c0 0 3.2 0 3.2 0 35.2 0 64-22.4 76.8-54.4s6.4-67.2-19.2-96c-12.8-12.8-12.8-32 0-44.8s32-12.8 48 3.2c22.4 22.4 57.6 28.8 86.4 19.2 3.2 0 6.4 0 9.6-3.2 32-12.8 51.2-44.8 51.2-76.8v-6.4c0-19.2 12.8-32 32-32s32 12.8 32 35.2c0 35.2 19.2 64 51.2 76.8s67.2 6.4 96-19.2c6.4-6.4 12.8-9.6 22.4-9.6v0c9.6 0 16 3.2 22.4 9.6 0 0 0 0 0 0 12.8 12.8 12.8 32-3.2 48-22.4 22.4-28.8 57.6-19.2 86.4 0 3.2 0 6.4 3.2 9.6 12.8 32 44.8 51.2 76.8 51.2h6.4c19.2 0 32 12.8 32 32s-12.8 32-35.2 32c-32 0-64 19.2-76.8 51.2z"></path>
</svg>
