<!-- Generated by IcoMoon.io -->
<svg version="1.1" xmlns="http://www.w3.org/2000/svg" width="768" height="768" viewBox="0 0 768 768">
<title></title>
<g id="icomoon-ignore">
</g>
<path d="M675.2 89.6c-73.6-73.6-192-73.6-265.6 0l-57.6 54.4c-12.8 12.8-12.8 32 0 44.8s32 12.8 44.8 0l54.4-54.4c51.2-48 128-48 179.2 0s51.2 131.2 3.2 179.2l-96 96c-3.2 3.2-9.6 9.6-12.8 12.8-57.6 41.6-137.6 32-179.2-25.6-9.6-12.8-32-16-44.8-6.4s-16 32-6.4 44.8c38.4 51.2 96 76.8 153.6 76.8 38.4 0 80-12.8 115.2-38.4 6.4-6.4 12.8-12.8 22.4-19.2l96-96c73.6-73.6 70.4-198.4-6.4-268.8z"></path>
<path d="M368 579.2l-54.4 54.4c-51.2 48-128 48-179.2 0s-51.2-131.2-3.2-179.2l96-96c3.2-3.2 9.6-9.6 12.8-12.8 28.8-19.2 60.8-28.8 96-25.6 35.2 6.4 64 22.4 83.2 51.2 9.6 12.8 32 16 44.8 6.4s16-32 6.4-44.8c-32-41.6-76.8-67.2-124.8-73.6-48-9.6-99.2 3.2-140.8 35.2-6.4 6.4-12.8 12.8-19.2 19.2l-96 96c-73.6 76.8-70.4 198.4 3.2 272 38.4 35.2 86.4 54.4 134.4 54.4s96-19.2 134.4-54.4l54.4-54.4c12.8-12.8 12.8-32 0-44.8s-35.2-16-48-3.2z"></path>
</svg>
